<?xml version="1.0" encoding="UTF-8" standalone="no"?>
<!-- Created with Inkscape (http://www.inkscape.org/) -->

<svg
   width="256"
   height="256"
   viewBox="0 0 67.733332 67.733335"
   version="1.1"
   id="svg5"
   inkscape:version="1.1.1 (3bf5ae0d25, 2021-09-20)"
   sodipodi:docname="save.svg"
   xmlns:inkscape="http://www.inkscape.org/namespaces/inkscape"
   xmlns:sodipodi="http://sodipodi.sourceforge.net/DTD/sodipodi-0.dtd"
   xmlns="http://www.w3.org/2000/svg"
   xmlns:svg="http://www.w3.org/2000/svg">
  <sodipodi:namedview
     id="namedview7"
     pagecolor="#ffffff"
     bordercolor="#666666"
     borderopacity="1.0"
     inkscape:pageshadow="2"
     inkscape:pageopacity="0.0"
     inkscape:pagecheckerboard="0"
     inkscape:document-units="mm"
     showgrid="false"
     units="px"
     width="256px"
     inkscape:zoom="2.72601"
     inkscape:cx="92.993056"
     inkscape:cy="132.6114"
     inkscape:window-width="1852"
     inkscape:window-height="1009"
     inkscape:window-x="0"
     inkscape:window-y="0"
     inkscape:window-maximized="1"
     inkscape:current-layer="g9513" />
  <defs
     id="defs2" />
  <g
     inkscape:label="Livello 1"
     inkscape:groupmode="layer"
     id="layer1">
    <g
       id="g9513"
       transform="matrix(3.0787879,0,0,3.0787879,-12.315152,-12.315152)">
      <path
         d="m 22,4 h -2 v 6 c 0,0.552 -0.448,1 -1,1 H 10 C 9.448,11 9,10.552 9,10 V 4 H 6 C 4.895,4 4,4.895 4,6 v 18 c 0,1.105 0.895,2 2,2 h 18 c 1.105,0 2,-0.895 2,-2 V 8 Z m 0,20 H 8 v -6 c 0,-1.105 0.895,-2 2,-2 h 10 c 1.105,0 2,0.895 2,2 z"
         id="path9502"
         style="fill:#202020;fill-opacity:0.75" />
      <rect
         height="5"
         width="2"
         x="16"
         y="4"
         id="rect9504"
         style="fill:#202020;fill-opacity:0.75" />
    </g>
  </g>
</svg>
